<?xml version="1.0" encoding="UTF-8" standalone="no"?>
<!-- Created with Inkscape (http://www.inkscape.org/) -->

<svg
   version="1.1"
   id="svg507"
   xml:space="preserve"
   width="32"
   height="32"
   viewBox="0 0 32 32"
   xmlns="http://www.w3.org/2000/svg"
   xmlns:svg="http://www.w3.org/2000/svg"><defs
     id="defs511"><clipPath
       clipPathUnits="userSpaceOnUse"
       id="clipPath521"><path
         d="M 0,24 H 24 V 0 H 0 Z"
         id="path519" /></clipPath></defs><g
     id="g513"
     transform="matrix(1.3333333,0,0,-1.3333333,0,32)"><g
       id="g515"><g
         id="g517"
         clip-path="url(#clipPath521)"><g
           id="g523"
           transform="translate(14.5,12)"><path
             d="M 0,0 C 0,3 2.227,5.678 4.452,7.407 5.337,8.095 5.11,9.501 4.054,9.877 2.967,10.265 1.721,10.5 0.5,10.5 -5.299,10.5 -10,5.799 -10,0 c 0,-5.799 4.701,-10.5 10.5,-10.5 1.221,0 2.467,0.235 3.554,0.623 1.056,0.376 1.283,1.782 0.398,2.47 C 2.227,-5.678 0,-3 0,0 Z"
             style="fill:none;stroke:#000000;stroke-width:3;stroke-linecap:round;stroke-linejoin:round;stroke-miterlimit:10;stroke-dasharray:none;stroke-opacity:1"
             id="path525" /></g></g></g></g></svg>
